<mxfile host="www.draw.io" modified="2020-02-05T02:38:10.802Z" agent="Mozilla/5.0 (Windows NT 6.1; Win64; x64) AppleWebKit/537.36 (KHTML, like Gecko) Chrome/79.0.3945.117 Safari/537.36" etag="KLwobNuO3CkDYZT6hMMc" version="12.5.4" type="github">
  <diagram id="4SOQRiWlkUt7vbGKZp-k" name="第 1 页">
    <mxGraphModel dx="766" dy="324" grid="1" gridSize="10" guides="1" tooltips="1" connect="1" arrows="1" fold="1" page="1" pageScale="1" pageWidth="2339" pageHeight="3300" math="0" shadow="0">
      <root>
        <mxCell id="0"/>
        <mxCell id="1" parent="0"/>
        <mxCell id="qqPKt2ZozTsFfwZ2fv8y-1" value="工作台" style="rounded=1;fillColor=#0065FF;strokeColor=none;html=1;fontColor=#ffffff;align=center;verticalAlign=middle;whiteSpace=wrap;fontSize=18;fontStyle=1;arcSize=50" parent="1" vertex="1">
          <mxGeometry x="260" y="40" width="410" height="40" as="geometry"/>
        </mxCell>
        <mxCell id="qqPKt2ZozTsFfwZ2fv8y-3" value="韩文键盘-吕崇-v0.01" style="rounded=1;arcSize=9;fillColor=#F7F8F9;align=left;spacingLeft=5;strokeColor=#DEE1E6;html=1;strokeWidth=2;fontSize=12" parent="1" vertex="1">
          <mxGeometry x="180" y="200" width="125" height="30" as="geometry"/>
        </mxCell>
        <mxCell id="qqPKt2ZozTsFfwZ2fv8y-4" value="版本名称" style="fillColor=none;strokeColor=none;html=1;fontSize=11;fontStyle=0;align=left;fontColor=#596780;fontStyle=1;fontSize=11" parent="1" vertex="1">
          <mxGeometry x="80" y="205" width="60" height="20" as="geometry"/>
        </mxCell>
        <mxCell id="qqPKt2ZozTsFfwZ2fv8y-7" value="保存" style="rounded=1;fillColor=#0057D8;align=center;strokeColor=none;html=1;fontColor=#ffffff;fontSize=12" parent="1" vertex="1">
          <mxGeometry x="370" y="198.5" width="80" height="33" as="geometry"/>
        </mxCell>
        <mxCell id="qqPKt2ZozTsFfwZ2fv8y-8" value="工作台" style="rounded=1;align=center;fillColor=#F1F2F4;strokeColor=none;html=1;fontColor=#596780;fontSize=12" parent="1" vertex="1">
          <mxGeometry x="80" y="140" width="80" height="33" as="geometry"/>
        </mxCell>
        <mxCell id="qqPKt2ZozTsFfwZ2fv8y-9" value="资源设置" style="dashed=0;html=1;rounded=1;fillColor=#6554C0;strokeColor=#6554C0;fontSize=12;align=center;fontStyle=1;strokeWidth=2;fontColor=#ffffff" parent="1" vertex="1">
          <mxGeometry x="27.5" y="480" width="115" height="30" as="geometry"/>
        </mxCell>
        <mxCell id="qqPKt2ZozTsFfwZ2fv8y-10" value="前景设置" style="dashed=0;html=1;rounded=1;fillColor=#6554C0;strokeColor=#6554C0;fontSize=12;align=center;fontStyle=1;strokeWidth=2;fontColor=#ffffff" parent="1" vertex="1">
          <mxGeometry x="27.5" y="595" width="115" height="30" as="geometry"/>
        </mxCell>
        <mxCell id="qqPKt2ZozTsFfwZ2fv8y-11" value="字体设置" style="dashed=0;html=1;rounded=1;fillColor=#6554C0;strokeColor=#6554C0;fontSize=12;align=center;fontStyle=1;strokeWidth=2;fontColor=#ffffff" parent="1" vertex="1">
          <mxGeometry x="27.5" y="535" width="115" height="30" as="geometry"/>
        </mxCell>
        <mxCell id="qqPKt2ZozTsFfwZ2fv8y-12" value="基础设置" style="dashed=0;html=1;rounded=1;fillColor=#6554C0;strokeColor=#6554C0;fontSize=12;align=center;fontStyle=1;strokeWidth=2;fontColor=#ffffff" parent="1" vertex="1">
          <mxGeometry x="25" y="370" width="115" height="30" as="geometry"/>
        </mxCell>
        <mxCell id="qqPKt2ZozTsFfwZ2fv8y-20" style="edgeStyle=orthogonalEdgeStyle;rounded=0;orthogonalLoop=1;jettySize=auto;html=1;" parent="1" source="qqPKt2ZozTsFfwZ2fv8y-13" edge="1">
          <mxGeometry relative="1" as="geometry">
            <mxPoint x="207.5" y="740" as="targetPoint"/>
          </mxGeometry>
        </mxCell>
        <mxCell id="qqPKt2ZozTsFfwZ2fv8y-13" value="键盘设置" style="dashed=0;html=1;rounded=1;fillColor=#6554C0;strokeColor=#6554C0;fontSize=12;align=center;fontStyle=1;strokeWidth=2;fontColor=#ffffff" parent="1" vertex="1">
          <mxGeometry x="27.5" y="725" width="115" height="30" as="geometry"/>
        </mxCell>
        <mxCell id="qqPKt2ZozTsFfwZ2fv8y-22" style="edgeStyle=orthogonalEdgeStyle;rounded=0;orthogonalLoop=1;jettySize=auto;html=1;" parent="1" source="qqPKt2ZozTsFfwZ2fv8y-14" edge="1">
          <mxGeometry relative="1" as="geometry">
            <mxPoint x="522.5" y="710" as="targetPoint"/>
          </mxGeometry>
        </mxCell>
        <mxCell id="qqPKt2ZozTsFfwZ2fv8y-14" value="竖屏" style="dashed=0;html=1;rounded=1;strokeColor=#FFAB00;fontSize=12;align=center;fontStyle=1;strokeWidth=2;fontColor=#42526E" parent="1" vertex="1">
          <mxGeometry x="387.5" y="690" width="115" height="40" as="geometry"/>
        </mxCell>
        <mxCell id="qqPKt2ZozTsFfwZ2fv8y-15" value="横屏" style="dashed=0;html=1;rounded=1;strokeColor=#FFAB00;fontSize=12;align=center;fontStyle=1;strokeWidth=2;fontColor=#42526E" parent="1" vertex="1">
          <mxGeometry x="387.5" y="755" width="115" height="40" as="geometry"/>
        </mxCell>
        <mxCell id="qqPKt2ZozTsFfwZ2fv8y-16" value="全键" style="dashed=0;html=1;rounded=1;fillColor=#6554C0;strokeColor=#FFAB00;fontSize=12;align=center;fontStyle=1;strokeWidth=2;fontColor=#ffffff" parent="1" vertex="1">
          <mxGeometry x="547.5" y="655" width="115" height="30" as="geometry"/>
        </mxCell>
        <mxCell id="qqPKt2ZozTsFfwZ2fv8y-17" value="数字键盘" style="dashed=0;html=1;rounded=1;fillColor=#6554C0;strokeColor=#FFAB00;fontSize=12;align=center;fontStyle=1;strokeWidth=2;fontColor=#ffffff" parent="1" vertex="1">
          <mxGeometry x="547.5" y="700" width="115" height="30" as="geometry"/>
        </mxCell>
        <mxCell id="qqPKt2ZozTsFfwZ2fv8y-18" value="符号键盘键盘" style="dashed=0;html=1;rounded=1;fillColor=#6554C0;strokeColor=#FFAB00;fontSize=12;align=center;fontStyle=1;strokeWidth=2;fontColor=#ffffff" parent="1" vertex="1">
          <mxGeometry x="547.5" y="745" width="115" height="30" as="geometry"/>
        </mxCell>
        <mxCell id="qqPKt2ZozTsFfwZ2fv8y-19" value="九键键盘键盘" style="dashed=0;html=1;rounded=1;fillColor=#6554C0;strokeColor=#FFAB00;fontSize=12;align=center;fontStyle=1;strokeWidth=2;fontColor=#ffffff" parent="1" vertex="1">
          <mxGeometry x="547.5" y="795" width="115" height="30" as="geometry"/>
        </mxCell>
        <mxCell id="qqPKt2ZozTsFfwZ2fv8y-33" value="安卓" style="rounded=1;fillColor=#253858;strokeColor=none;html=1;fontColor=#ffffff;align=left;fontSize=12;spacingLeft=10" parent="1" vertex="1">
          <mxGeometry x="170" y="272" width="100" height="33" as="geometry"/>
        </mxCell>
        <mxCell id="qqPKt2ZozTsFfwZ2fv8y-34" value="" style="shape=triangle;direction=south;fillColor=#ffffff;strokeColor=none;html=1" parent="qqPKt2ZozTsFfwZ2fv8y-33" vertex="1">
          <mxGeometry x="1" y="0.5" width="12" height="6" relative="1" as="geometry">
            <mxPoint x="-20" y="-3" as="offset"/>
          </mxGeometry>
        </mxCell>
        <mxCell id="qqPKt2ZozTsFfwZ2fv8y-35" value="" style="rounded=1;fillColor=#ffffff;strokeColor=#DFE1E5;shadow=1;html=1;arcSize=4;align=center;" parent="1" vertex="1">
          <mxGeometry x="321.5" y="240" width="110" height="110" as="geometry"/>
        </mxCell>
        <mxCell id="qqPKt2ZozTsFfwZ2fv8y-36" value="安卓" style="rounded=0;fillColor=#F4F5F7;strokeColor=none;shadow=0;html=1;align=center;fontSize=12;spacingLeft=10;fontColor=#253858;resizeWidth=1" parent="qqPKt2ZozTsFfwZ2fv8y-35" vertex="1">
          <mxGeometry width="110" height="33" relative="1" as="geometry">
            <mxPoint y="6" as="offset"/>
          </mxGeometry>
        </mxCell>
        <mxCell id="qqPKt2ZozTsFfwZ2fv8y-37" value="苹果" style="rounded=0;fillColor=none;strokeColor=none;shadow=0;html=1;align=center;fontSize=12;spacingLeft=10;fontColor=#253858;resizeWidth=1" parent="qqPKt2ZozTsFfwZ2fv8y-35" vertex="1">
          <mxGeometry width="110" height="30" relative="1" as="geometry">
            <mxPoint y="39" as="offset"/>
          </mxGeometry>
        </mxCell>
        <mxCell id="qqPKt2ZozTsFfwZ2fv8y-38" value="xxx" style="rounded=0;fillColor=none;strokeColor=none;shadow=0;html=1;align=center;fontSize=12;spacingLeft=10;fontColor=#253858;resizeWidth=1" parent="qqPKt2ZozTsFfwZ2fv8y-35" vertex="1">
          <mxGeometry width="110" height="33" relative="1" as="geometry">
            <mxPoint y="72" as="offset"/>
          </mxGeometry>
        </mxCell>
        <mxCell id="qqPKt2ZozTsFfwZ2fv8y-39" value="平台" style="fillColor=none;strokeColor=none;html=1;fontSize=11;fontStyle=0;align=left;fontColor=#596780;fontStyle=1;fontSize=11" parent="1" vertex="1">
          <mxGeometry x="87.5" y="278.5" width="60" height="20" as="geometry"/>
        </mxCell>
        <mxCell id="qqPKt2ZozTsFfwZ2fv8y-40" value="新建" style="dashed=0;html=1;rounded=1;strokeColor=#FFAB00;fontSize=12;align=center;fontStyle=1;strokeWidth=2;fontColor=#42526E;fillColor=#FFAB00;" parent="1" vertex="1">
          <mxGeometry x="232.5" y="625" width="115" height="40" as="geometry"/>
        </mxCell>
        <mxCell id="qqPKt2ZozTsFfwZ2fv8y-41" value="删除" style="rounded=1;fillColor=#0057D8;align=center;strokeColor=none;html=1;fontColor=#ffffff;fontSize=12" parent="1" vertex="1">
          <mxGeometry x="685" y="655" width="60" height="33" as="geometry"/>
        </mxCell>
        <mxCell id="qqPKt2ZozTsFfwZ2fv8y-42" value="修改" style="rounded=1;fillColor=#0057D8;align=center;strokeColor=none;html=1;fontColor=#ffffff;fontSize=12" parent="1" vertex="1">
          <mxGeometry x="765" y="655" width="60" height="33" as="geometry"/>
        </mxCell>
        <mxCell id="qqPKt2ZozTsFfwZ2fv8y-43" value="删除" style="rounded=1;fillColor=#0057D8;align=center;strokeColor=none;html=1;fontColor=#ffffff;fontSize=12" parent="1" vertex="1">
          <mxGeometry x="685" y="725" width="60" height="33" as="geometry"/>
        </mxCell>
        <mxCell id="qqPKt2ZozTsFfwZ2fv8y-44" value="修改" style="rounded=1;fillColor=#0057D8;align=center;strokeColor=none;html=1;fontColor=#ffffff;fontSize=12" parent="1" vertex="1">
          <mxGeometry x="765" y="725" width="60" height="33" as="geometry"/>
        </mxCell>
        <mxCell id="qqPKt2ZozTsFfwZ2fv8y-45" value="删除" style="rounded=1;fillColor=#0057D8;align=center;strokeColor=none;html=1;fontColor=#ffffff;fontSize=12" parent="1" vertex="1">
          <mxGeometry x="685" y="785" width="60" height="33" as="geometry"/>
        </mxCell>
        <mxCell id="qqPKt2ZozTsFfwZ2fv8y-46" value="修改" style="rounded=1;fillColor=#0057D8;align=center;strokeColor=none;html=1;fontColor=#ffffff;fontSize=12" parent="1" vertex="1">
          <mxGeometry x="765" y="785" width="60" height="33" as="geometry"/>
        </mxCell>
        <mxCell id="qqPKt2ZozTsFfwZ2fv8y-49" value="" style="edgeStyle=orthogonalEdgeStyle;rounded=0;orthogonalLoop=1;jettySize=auto;html=1;" parent="1" source="qqPKt2ZozTsFfwZ2fv8y-47" edge="1">
          <mxGeometry relative="1" as="geometry">
            <mxPoint x="367.5" y="710" as="targetPoint"/>
          </mxGeometry>
        </mxCell>
        <mxCell id="qqPKt2ZozTsFfwZ2fv8y-47" value="手机" style="dashed=0;html=1;rounded=1;strokeColor=#FFAB00;fontSize=12;align=center;fontStyle=1;strokeWidth=2;fontColor=#42526E" parent="1" vertex="1">
          <mxGeometry x="232.5" y="690" width="115" height="40" as="geometry"/>
        </mxCell>
        <mxCell id="qqPKt2ZozTsFfwZ2fv8y-48" value="PAD" style="dashed=0;html=1;rounded=1;strokeColor=#FFAB00;fontSize=12;align=center;fontStyle=1;strokeWidth=2;fontColor=#42526E" parent="1" vertex="1">
          <mxGeometry x="232.5" y="755" width="115" height="40" as="geometry"/>
        </mxCell>
        <mxCell id="qqPKt2ZozTsFfwZ2fv8y-50" value="按键模板设置" style="dashed=0;html=1;rounded=1;fillColor=#6554C0;strokeColor=#6554C0;fontSize=12;align=center;fontStyle=1;strokeWidth=2;fontColor=#ffffff" parent="1" vertex="1">
          <mxGeometry x="25" y="656.5" width="115" height="30" as="geometry"/>
        </mxCell>
        <mxCell id="qqPKt2ZozTsFfwZ2fv8y-51" value="" style="shape=curlyBracket;whiteSpace=wrap;html=1;rounded=1;strokeColor=#FFAB00;fillColor=#FFAB00;" parent="1" vertex="1">
          <mxGeometry x="207.5" y="656.5" width="20" height="120" as="geometry"/>
        </mxCell>
        <mxCell id="qqPKt2ZozTsFfwZ2fv8y-52" value="" style="shape=curlyBracket;whiteSpace=wrap;html=1;rounded=1;strokeColor=#FFAB00;fillColor=#FFAB00;" parent="1" vertex="1">
          <mxGeometry x="369" y="688" width="12" height="120" as="geometry"/>
        </mxCell>
        <mxCell id="qqPKt2ZozTsFfwZ2fv8y-53" value="" style="shape=curlyBracket;whiteSpace=wrap;html=1;rounded=1;strokeColor=#FFAB00;fillColor=#FFAB00;" parent="1" vertex="1">
          <mxGeometry x="517.5" y="681.5" width="20" height="120" as="geometry"/>
        </mxCell>
        <mxCell id="qqPKt2ZozTsFfwZ2fv8y-54" value="公开" style="rounded=1;fillColor=#0057D8;align=center;strokeColor=none;html=1;fontColor=#ffffff;fontSize=12" parent="1" vertex="1">
          <mxGeometry x="845" y="656.5" width="60" height="33" as="geometry"/>
        </mxCell>
        <mxCell id="qqPKt2ZozTsFfwZ2fv8y-55" value="公开" style="rounded=1;fillColor=#0057D8;align=center;strokeColor=none;html=1;fontColor=#ffffff;fontSize=12" parent="1" vertex="1">
          <mxGeometry x="845" y="726.5" width="60" height="33" as="geometry"/>
        </mxCell>
        <mxCell id="qqPKt2ZozTsFfwZ2fv8y-56" value="公开" style="rounded=1;fillColor=#0057D8;align=center;strokeColor=none;html=1;fontColor=#ffffff;fontSize=12" parent="1" vertex="1">
          <mxGeometry x="845" y="786.5" width="60" height="33" as="geometry"/>
        </mxCell>
        <mxCell id="rOYwQ7m1Tq0KAZyNn6Vy-1" value="配置设置" style="dashed=0;html=1;rounded=1;fillColor=#6554C0;strokeColor=#6554C0;fontSize=12;align=center;fontStyle=1;strokeWidth=2;fontColor=#ffffff" parent="1" vertex="1">
          <mxGeometry x="27.5" y="430" width="115" height="30" as="geometry"/>
        </mxCell>
      </root>
    </mxGraphModel>
  </diagram>
</mxfile>
